
 #######                         #######                      
 #       ###### ###### #         #       #####  ###### ###### 
 #       #      #      #         #       #    # #      #      
 #####   #####  #####  #         #####   #    # #####  #####  
 #       #      #      #         #       #####  #      #      
 #       #      #      #         #       #   #  #      #      
 #       ###### ###### ######    #       #    # ###### ###### 


Genre: Drama 
Language:English
IMDb: 
http://www.imdb.com/title/tt0808285/
Source:BluRay.x264-REFiNED

Format : MPEG-4
Format profile : Base Media
Codec ID : isom
File size : 2.09 GiB
Duration : 1h 35mn
Overall bit rate : 3 142 Kbps

Video
Format profile : High@L4.1
Format settings, CABAC : Yes
Format settings, ReFrames : 3 frames
Codec ID : avc1
Codec ID/Info : Advanced Video Coding
Duration : 1h 35mn
Bit rate mode : Variable
Bit rate : 2 789 Kbps
Maximum bit rate : 17.3 Mbps
Width : 1 280 pixels
Height : 544 pixels
Display aspect ratio : 2.35:1
Frame rate mode : Constant
Frame rate : 25.000 fps
Color space : YUV
Chroma subsampling : 4:2:0
Bit depth : 8 bits
Scan type : Progressive
Bits/(Pixel*Frame) : 0.160
Stream size : 1.79 GiB (86%)
Writing library : x264

Audio
ID : 2
Format : AAC
Format/Info : Advanced Audio Codec
Format version : Version 4
Format profile : LC
Format settings, SBR : No
Codec ID : 40
Duration : 1h 35mn
Bit rate mode : Variable
Bit rate : 444 Kbps
Maximum bit rate : 497 Kbps
Channel(s) : 6 channels
Channel positions : Front: L C R, Side: L R, LFE
Sampling rate : 48.0 KHz
Stream size : 303 MiB (14%)


Plot:
A bartender takes a young homeless man in under his wing.


Greets:

INK,CRYS,IMAGINE,LKRG,FXG,3Li,FLAWL3SS,TA,iLLUSiON,ViSiON,LU,TheFalcon007,MYSTiC,PrisM,Noir,WBZ,LAP,Rx,Kingdom,SAFCuk009+Fabreezy,HDLiTE,TWiZTED,ExtraTorrentRG.ELEKTRI4KA,MAGNAT,CM8
And to all the other p2p grps past and present





================================== 
http://thepiratebay.org/user/hiest
==================================





Screen Shots:
 
http://www.postimg.com/30000/29492.jpg
 
http://www.postimg.com/30000/29493.jpg
 
http://www.postimg.com/30000/29494.jpg
 
http://www.postimg.com/30000/29495.jpg


 #######                         #######                      
 #       ###### ###### #         #       #####  ###### ###### 
 #       #      #      #         #       #    # #      #      
 #####   #####  #####  #         #####   #    # #####  #####  
 #       #      #      #         #       #####  #      #      
 #       #      #      #         #       #   #  #      #      
 #       ###### ###### ######    #       #    # ###### ###### 
